<?xml version="1.0" standalone="no"?>
<!DOCTYPE svg PUBLIC "-//W3C//DTD SVG 20010904//EN"
 "http://www.w3.org/TR/2001/REC-SVG-20010904/DTD/svg10.dtd">
<svg version="1.0" xmlns="http://www.w3.org/2000/svg"
 width="1183.000000pt" height="1183.000000pt" viewBox="0 0 1183.000000 1183.000000"
 preserveAspectRatio="xMidYMid meet">
<metadata>
Created by potrace 1.14, written by Peter Selinger 2001-2017
</metadata>
<g transform="translate(0.000000,1183.000000) scale(0.100000,-0.100000)"
fill="#000000" stroke="none">
<path d="M5560 11819 c-1741 -108 -3328 -962 -4375 -2354 -1031 -1370 -1413
-3120 -1051 -4806 398 -1848 1679 -3409 3421 -4169 1435 -625 3081 -652 4540
-75 1951 772 3365 2553 3669 4620 155 1055 34 2095 -356 3075 -85 212 -245
544 -357 740 -900 1570 -2482 2653 -4256 2914 -412 60 -845 80 -1235 55z m705
-2479 c1119 -65 1983 -437 2498 -1075 234 -290 412 -657 491 -1015 140 -637
81 -1356 -154 -1880 -199 -442 -537 -828 -954 -1090 -413 -260 -919 -429
-1481 -495 -77 -9 -155 -18 -172 -21 l-33 -5 0 -789 0 -790 -540 0 -540 0 0
790 0 789 -32 5 c-18 2 -109 14 -203 26 -451 58 -830 167 -1180 340 -295 145
-522 307 -741 525 -495 496 -735 1168 -710 1985 11 383 71 699 187 997 392
1001 1424 1618 2849 1702 199 12 521 12 715 1z"/>
<path d="M5650 8383 c-978 -73 -1667 -500 -1903 -1180 -71 -203 -101 -400
-101 -663 1 -418 84 -726 272 -1006 323 -479 897 -758 1700 -825 180 -15 612
-6 772 16 557 75 983 255 1278 539 244 236 393 508 461 842 55 271 55 587 0
872 -72 373 -280 710 -584 947 -310 242 -760 401 -1273 450 -139 13 -491 18
-622 8z"/>
</g>
</svg>
